# xmcd
#
# Track frame offsets:
#	150
#	19587
#	34545
#	51985
#	64990
#	77922
#	94485
#	111760
#	124490
#	140752
#	155975
#	179832
#	196410
#	213582
#	231975
#	245742
#	260350
#	275935
#	291545
#	304725
#
# Disc length: 4299 seconds
#
# Revision: 0
# Processed by: cddbd v1.5.2PL0 Copyright (c) Steve Scherf et al.
# Submitted via: EasyCDDAExtractor 15.3.0.1
#
DISCID=4f10c914
DTITLE=Rocio Jurado - Serie Platino - 20 Exitos
DYEAR=1995
DGENRE=Latin
TTITLE0=Como Una Ola
TTITLE1=Ya No Te Sientas Solo Y Triste
TTITLE2=Por Que Me Habras Besado
TTITLE3=Si Te Habla De Mi
TTITLE4=Naranja Pero Limon
TTITLE5=Ese Hombre
TTITLE6=Cuentale
TTITLE7=A Ti
TTITLE8=Señora
TTITLE9=A Pesar De Todo
TTITLE10=Si Amanece
TTITLE11=Me Hubiera Gustado Tanto
TTITLE12=Lo Siento Mi Amor
TTITLE13=Paloma Negra
TTITLE14=Rocio
TTITLE15=La Zarzamora
TTITLE16=Por Un Amor
TTITLE17=Lo Vas A Conseguir
TTITLE18=Pa' Que Sientas Lo Que Siento
TTITLE19=Mi Amante Amigo
EXTD=
EXTT0=
EXTT1=
EXTT2=
EXTT3=
EXTT4=
EXTT5=
EXTT6=
EXTT7=
EXTT8=
EXTT9=
EXTT10=
EXTT11=
EXTT12=
EXTT13=
EXTT14=
EXTT15=
EXTT16=
EXTT17=
EXTT18=
EXTT19=
PLAYORDER=
